<svg width="1440" height="24" viewBox="0 0 1440 24" fill="none" xmlns="http://www.w3.org/2000/svg">
<path d="M-90.631 23L-86.0181 23L-86.0181 13.9872L-77.1438 13.9872L-77.1438 10.1839L-86.0181 10.1839L-86.0181 4.98508L-76.185 4.98509L-76.185 1.18182L-90.631 1.18182L-90.631 23ZM-73.0822 23L-68.4693 23L-68.4693 15.2656L-65.1028 15.2656L-60.9693 23L-55.8769 23L-60.5112 14.5199C-58.0289 13.4545 -56.6546 11.2919 -56.6546 8.30895C-56.6546 3.97301 -59.5204 1.18182 -64.4743 1.18182L-73.0822 1.18182L-73.0822 23ZM-68.4693 11.5582L-68.4693 4.95313L-65.3585 4.95313C-62.6951 4.95313 -61.4061 6.13565 -61.4061 8.30895C-61.4061 10.4716 -62.6951 11.5582 -65.3372 11.5582L-68.4693 11.5582ZM-53.3947 23L-38.6504 23L-38.6504 19.1967L-48.7818 19.1967L-48.7818 13.9872L-39.4494 13.9872L-39.4494 10.184L-48.7818 10.184L-48.7818 4.98509L-38.693 4.98509L-38.693 1.18182L-53.3947 1.18182L-53.3947 23ZM-23.1896 7.45668L-18.7685 7.45668C-18.8324 3.56818 -22.0284 0.883525 -26.8864 0.883524C-31.6697 0.883524 -35.1747 3.52557 -35.1534 7.48864C-35.1641 10.706 -32.8949 12.549 -29.2088 13.4332L-26.8331 14.0298C-24.4574 14.6051 -23.1364 15.2869 -23.1257 16.7571C-23.1364 18.3551 -24.6491 19.4418 -26.9929 19.4418C-29.3899 19.4418 -31.1158 18.3338 -31.2649 16.1499L-35.7287 16.1499C-35.6115 20.8693 -32.2344 23.309 -26.9396 23.309C-21.6129 23.309 -18.4808 20.7628 -18.4702 16.7678C-18.4808 13.1349 -21.2187 11.2067 -25.0114 10.3544L-26.9716 9.88566C-28.8679 9.44887 -30.4553 8.74574 -30.4233 7.17969C-30.4233 5.77344 -29.1768 4.74006 -26.9183 4.74006C-24.7131 4.74006 -23.3601 5.74148 -23.1896 7.45668ZM-15.3674 23L-10.7544 23L-10.7544 13.9872L-1.39009 13.9872L-1.39009 23L3.21219 23L3.21218 1.18182L-1.39009 1.18182L-1.39009 10.184L-10.7544 10.184L-10.7544 1.18182L-15.3674 1.18182L-15.3674 23ZM42.0625 10.2905L12.0625 10.2905L12.0625 13.8913L42.0625 13.8913L42.0625 10.2905ZM50.9022 23L55.5151 23L55.5151 13.9872L64.3894 13.9872L64.3894 10.184L55.5151 10.184L55.5151 4.98509L65.3482 4.98509L65.3482 1.18182L50.9022 1.18182L50.9022 23ZM68.451 23L73.0639 23L73.0639 15.2656L76.4304 15.2656L80.5639 23L85.6563 23L81.022 14.5199C83.5043 13.4546 84.8786 11.2919 84.8786 8.30896C84.8786 3.97302 82.0128 1.18182 77.059 1.18182L68.451 1.18182L68.451 23ZM73.0639 11.5582L73.0639 4.95313L76.1747 4.95313C78.8381 4.95313 80.1271 6.13566 80.1271 8.30895C80.1271 10.4716 78.8381 11.5582 76.196 11.5582L73.0639 11.5582ZM88.1385 23L102.883 23L102.883 19.1967L92.7514 19.1967L92.7514 13.9872L102.084 13.9872L102.084 10.184L92.7514 10.184L92.7514 4.98509L102.84 4.98509L102.84 1.18182L88.1385 1.18182L88.1385 23ZM118.344 7.45668L122.765 7.45668C122.701 3.56819 119.505 0.88353 114.647 0.88353C109.863 0.883529 106.358 3.52557 106.38 7.48864C106.369 10.706 108.638 12.549 112.324 13.4332L114.7 14.0298C117.076 14.6051 118.397 15.2869 118.407 16.7571C118.397 18.3551 116.884 19.4418 114.54 19.4418C112.143 19.4418 110.417 18.3338 110.268 16.1499L105.805 16.1499C105.922 20.8693 109.299 23.309 114.594 23.309C119.92 23.309 123.052 20.7628 123.063 16.7678C123.052 13.135 120.314 11.2067 116.522 10.3544L114.562 9.88566C112.665 9.44887 111.078 8.74575 111.11 7.1797C111.11 5.77345 112.356 4.74006 114.615 4.74006C116.82 4.74006 118.173 5.74148 118.344 7.45668ZM126.166 23L130.779 23L130.779 13.9872L140.143 13.9872L140.143 23L144.745 23L144.745 1.18183L140.143 1.18183L140.143 10.184L130.779 10.184L130.779 1.18183L126.166 1.18183L126.166 23ZM183.596 10.2905L153.596 10.2905L153.596 13.8913L183.596 13.8913L183.596 10.2905ZM192.435 23L197.048 23L197.048 13.9872L205.923 13.9872L205.923 10.184L197.048 10.184L197.048 4.9851L206.881 4.9851L206.881 1.18183L192.435 1.18183L192.435 23ZM209.984 23L214.597 23L214.597 15.2656L217.964 15.2656L222.097 23L227.189 23L222.555 14.5199C225.037 13.4546 226.412 11.2919 226.412 8.30896C226.412 3.97302 223.546 1.18183 218.592 1.18183L209.984 1.18183L209.984 23ZM214.597 11.5582L214.597 4.95314L217.708 4.95314C220.371 4.95314 221.66 6.13567 221.66 8.30896C221.66 10.4716 220.371 11.5582 217.729 11.5582L214.597 11.5582ZM229.672 23L244.416 23L244.416 19.1967L234.285 19.1967L234.285 13.9872L243.617 13.9872L243.617 10.184L234.285 10.184L234.285 4.9851L244.373 4.9851L244.373 1.18183L229.672 1.18183L229.672 23ZM259.877 7.45669L264.298 7.45669C264.234 3.56819 261.038 0.883535 256.18 0.883535C251.397 0.883535 247.892 3.52558 247.913 7.48865C247.902 10.706 250.172 12.549 253.858 13.4333L256.233 14.0298C258.609 14.6051 259.93 15.2869 259.941 16.7571C259.93 18.3551 258.417 19.4418 256.074 19.4418C253.676 19.4418 251.951 18.3338 251.801 16.1499L247.338 16.1499C247.455 20.8693 250.832 23.309 256.127 23.309C261.453 23.309 264.586 20.7628 264.596 16.7678C264.586 13.135 261.848 11.2067 258.055 10.3544L256.095 9.88567C254.199 9.44888 252.611 8.74575 252.643 7.1797C252.643 5.77345 253.89 4.74007 256.148 4.74007C258.353 4.74007 259.706 5.74149 259.877 7.45669ZM267.699 23L272.312 23L272.312 13.9872L281.676 13.9872L281.676 23L286.279 23L286.279 1.18183L281.676 1.18183L281.676 10.184L272.312 10.184L272.312 1.18183L267.699 1.18183L267.699 23ZM325.129 10.2905L295.129 10.2905L295.129 13.8913L325.129 13.8914L325.129 10.2905ZM333.969 23L338.582 23L338.582 13.9872L347.456 13.9872L347.456 10.184L338.582 10.184L338.582 4.9851L348.415 4.9851L348.415 1.18183L333.969 1.18183L333.969 23ZM351.517 23L356.13 23L356.13 15.2656L359.497 15.2656L363.63 23L368.723 23L364.088 14.5199C366.571 13.4546 367.945 11.2919 367.945 8.30897C367.945 3.97303 365.079 1.18183 360.125 1.18183L351.517 1.18183L351.517 23ZM356.13 11.5583L356.13 4.95314L359.241 4.95314C361.904 4.95314 363.194 6.13567 363.194 8.30897C363.194 10.4716 361.904 11.5583 359.262 11.5583L356.13 11.5583ZM371.205 23L385.949 23L385.949 19.1968L375.818 19.1967L375.818 13.9872L385.15 13.9872L385.15 10.184L375.818 10.184L375.818 4.9851L385.907 4.9851L385.907 1.18184L371.205 1.18183L371.205 23ZM401.41 7.45669L405.831 7.45669C405.767 3.5682 402.571 0.88354 397.713 0.88354C392.93 0.88354 389.425 3.52559 389.446 7.48865C389.436 10.706 391.705 12.549 395.391 13.4333L397.767 14.0298C400.142 14.6051 401.463 15.2869 401.474 16.7571C401.463 18.3551 399.95 19.4418 397.607 19.4418C395.21 19.4418 393.484 18.3338 393.335 16.1499L388.871 16.1499C388.988 20.8693 392.365 23.309 397.66 23.309C402.987 23.309 406.119 20.7628 406.129 16.7678C406.119 13.135 403.381 11.2067 399.588 10.3544L397.628 9.88567C395.732 9.44888 394.144 8.74576 394.176 7.17971C394.176 5.77346 395.423 4.74007 397.681 4.74007C399.887 4.74007 401.24 5.74149 401.41 7.45669ZM409.232 23L413.845 23L413.845 13.9872L423.21 13.9872L423.21 23L427.812 23L427.812 1.18184L423.21 1.18184L423.21 10.184L413.845 10.184L413.845 1.18184L409.232 1.18184L409.232 23ZM466.662 10.2905L436.662 10.2905L436.662 13.8914L466.662 13.8914L466.662 10.2905ZM475.502 23L480.115 23L480.115 13.9872L488.989 13.9872L488.989 10.184L480.115 10.184L480.115 4.98511L489.948 4.98511L489.948 1.18184L475.502 1.18184L475.502 23ZM493.051 23L497.664 23L497.664 15.2656L501.03 15.2656L505.164 23L510.256 23L505.622 14.5199C508.104 13.4546 509.478 11.2919 509.478 8.30897C509.478 3.97303 506.612 1.18184 501.659 1.18184L493.051 1.18184L493.051 23ZM497.664 11.5583L497.664 4.95315L500.774 4.95315C503.438 4.95315 504.727 6.13568 504.727 8.30897C504.727 10.4716 503.438 11.5583 500.796 11.5583L497.664 11.5583ZM512.738 23L527.482 23L527.482 19.1968L517.351 19.1968L517.351 13.9872L526.683 13.9872L526.683 10.184L517.351 10.184L517.351 4.98511L527.44 4.98511L527.44 1.18184L512.738 1.18184L512.738 23ZM542.943 7.4567L547.364 7.4567C547.3 3.5682 544.104 0.883545 539.246 0.883545C534.463 0.883545 530.958 3.52559 530.979 7.48866C530.969 10.706 533.238 12.549 536.924 13.4333L539.3 14.0299C541.675 14.6051 542.996 15.287 543.007 16.7571C542.996 18.3551 541.484 19.4418 539.14 19.4418C536.743 19.4418 535.017 18.3338 534.868 16.1499L530.404 16.1499C530.521 20.8693 533.898 23.309 539.193 23.309C544.52 23.309 547.652 20.7628 547.663 16.7678C547.652 13.135 544.914 11.2067 541.121 10.3544L539.161 9.88568C537.265 9.44889 535.678 8.74576 535.71 7.17971C535.71 5.77346 536.956 4.74008 539.214 4.74008C541.42 4.74008 542.773 5.7415 542.943 7.4567ZM550.765 23L555.378 23L555.378 13.9872L564.743 13.9872L564.743 23L569.345 23L569.345 1.18184L564.743 1.18184L564.743 10.184L555.378 10.184L555.378 1.18184L550.765 1.18184L550.765 23ZM608.195 10.2905L578.195 10.2905L578.195 13.8914L608.195 13.8914L608.195 10.2905ZM617.035 23L621.648 23L621.648 13.9872L630.522 13.9872L630.522 10.184L621.648 10.184L621.648 4.98511L631.481 4.98511L631.481 1.18184L617.035 1.18184L617.035 23ZM634.584 23L639.197 23L639.197 15.2657L642.563 15.2657L646.697 23L651.789 23L647.155 14.5199C649.637 13.4546 651.011 11.2919 651.011 8.30898C651.011 3.97304 648.146 1.18184 643.192 1.18184L634.584 1.18184L634.584 23ZM639.197 11.5583L639.197 4.95315L642.308 4.95315C644.971 4.95315 646.26 6.13568 646.26 8.30898C646.26 10.4716 644.971 11.5583 642.329 11.5583L639.197 11.5583ZM654.271 23L669.016 23L669.016 19.1968L658.884 19.1968L658.884 13.9872L668.217 13.9872L668.217 10.184L658.884 10.184L658.884 4.98511L668.973 4.98511L668.973 1.18185L654.271 1.18185L654.271 23ZM684.476 7.4567L688.898 7.4567C688.834 3.56821 685.638 0.883551 680.78 0.88355C675.996 0.88355 672.491 3.5256 672.513 7.48866C672.502 10.706 674.771 12.549 678.457 13.4333L680.833 14.0299C683.209 14.6051 684.53 15.287 684.54 16.7571C684.53 18.3551 683.017 19.4418 680.673 19.4418C678.276 19.4418 676.55 18.3338 676.401 16.1499L671.937 16.1499C672.055 20.8693 675.432 23.309 680.726 23.309C686.053 23.309 689.185 20.7628 689.196 16.7678C689.185 13.135 686.447 11.2067 682.655 10.3544L680.694 9.88568C678.798 9.44889 677.211 8.74577 677.243 7.17972C677.243 5.77347 678.489 4.74008 680.748 4.74008C682.953 4.74008 684.306 5.7415 684.476 7.4567ZM692.299 23L696.912 23L696.912 13.9872L706.276 13.9872L706.276 23L710.878 23L710.878 1.18185L706.276 1.18185L706.276 10.184L696.912 10.184L696.912 1.18185L692.299 1.18185L692.299 23ZM749.729 10.2905L719.729 10.2905L719.729 13.8914L749.729 13.8914L749.729 10.2905ZM758.568 23L763.181 23L763.181 13.9872L772.055 13.9872L772.055 10.184L763.181 10.184L763.181 4.98512L773.014 4.98512L773.014 1.18185L758.568 1.18185L758.568 23ZM776.117 23L780.73 23L780.73 15.2657L784.096 15.2657L788.23 23L793.322 23L788.688 14.5199C791.17 13.4546 792.545 11.2919 792.545 8.30898C792.545 3.97304 789.679 1.18185 784.725 1.18185L776.117 1.18185L776.117 23ZM780.73 11.5583L780.73 4.95316L783.841 4.95316C786.504 4.95316 787.793 6.13569 787.793 8.30898C787.793 10.4716 786.504 11.5583 783.862 11.5583L780.73 11.5583ZM795.805 23L810.549 23L810.549 19.1968L800.417 19.1968L800.417 13.9872L809.75 13.9872L809.75 10.184L800.417 10.184L800.417 4.98512L810.506 4.98512L810.506 1.18185L795.805 1.18185L795.805 23ZM826.01 7.45671L830.431 7.45671C830.367 3.56821 827.171 0.883556 822.313 0.883556C817.529 0.883555 814.025 3.5256 814.046 7.48867C814.035 10.706 816.304 12.549 819.99 13.4333L822.366 14.0299C824.742 14.6051 826.063 15.287 826.074 16.7571C826.063 18.3551 824.55 19.4418 822.206 19.4418C819.809 19.4418 818.083 18.3338 817.934 16.1499L813.471 16.1499C813.588 20.8694 816.965 23.309 822.26 23.309C827.586 23.309 830.718 20.7628 830.729 16.7678C830.718 13.135 827.98 11.2067 824.188 10.3544L822.228 9.88569C820.331 9.4489 818.744 8.74577 818.776 7.17972C818.776 5.77347 820.022 4.74009 822.281 4.74009C824.486 4.74009 825.839 5.74151 826.01 7.45671ZM833.832 23L838.445 23L838.445 13.9872L847.809 13.9872L847.809 23L852.411 23L852.411 1.18185L847.809 1.18185L847.809 10.184L838.445 10.184L838.445 1.18185L833.832 1.18185L833.832 23ZM891.262 10.2905L861.262 10.2905L861.262 13.8914L891.262 13.8914L891.262 10.2905ZM900.101 23L904.714 23L904.714 13.9873L913.589 13.9873L913.589 10.184L904.714 10.184L904.714 4.98512L914.547 4.98512L914.547 1.18185L900.101 1.18185L900.101 23ZM917.65 23L922.263 23L922.263 15.2657L925.63 15.2657L929.763 23L934.855 23L930.221 14.5199C932.703 13.4546 934.078 11.2919 934.078 8.30899C934.078 3.97305 931.212 1.18186 926.258 1.18186L917.65 1.18185L917.65 23ZM922.263 11.5583L922.263 4.95316L925.374 4.95316C928.037 4.95316 929.326 6.13569 929.326 8.30899C929.326 10.4716 928.037 11.5583 925.395 11.5583L922.263 11.5583ZM937.338 23L952.082 23L952.082 19.1968L941.951 19.1968L941.951 13.9873L951.283 13.9873L951.283 10.184L941.951 10.184L941.951 4.98512L952.039 4.98512L952.039 1.18186L937.338 1.18186L937.338 23ZM967.543 7.45671L971.964 7.45671C971.9 3.56822 968.704 0.883561 963.846 0.883561C959.063 0.883561 955.558 3.52561 955.579 7.48867C955.568 10.706 957.838 12.549 961.524 13.4333L963.899 14.0299C966.275 14.6052 967.596 15.287 967.607 16.7571C967.596 18.3552 966.083 19.4418 963.74 19.4418C961.343 19.4418 959.617 18.3338 959.468 16.1499L955.004 16.1499C955.121 20.8694 958.498 23.309 963.793 23.309C969.12 23.309 972.252 20.7628 972.262 16.7678C972.252 13.135 969.514 11.2067 965.721 10.3544L963.761 9.88569C961.865 9.4489 960.277 8.74578 960.309 7.17973C960.309 5.77348 961.556 4.74009 963.814 4.74009C966.019 4.74009 967.372 5.74152 967.543 7.45671ZM975.365 23L979.978 23L979.978 13.9873L989.342 13.9873L989.342 23L993.945 23L993.945 1.18186L989.342 1.18186L989.342 10.184L979.978 10.184L979.978 1.18186L975.365 1.18186L975.365 23ZM1032.79 10.2905L1002.79 10.2905L1002.79 13.8914L1032.79 13.8914L1032.79 10.2905ZM1041.63 23L1046.25 23L1046.25 13.9873L1055.12 13.9873L1055.12 10.184L1046.25 10.184L1046.25 4.98513L1056.08 4.98513L1056.08 1.18186L1041.63 1.18186L1041.63 23ZM1059.18 23L1063.8 23L1063.8 15.2657L1067.16 15.2657L1071.3 23L1076.39 23L1071.75 14.5199C1074.24 13.4546 1075.61 11.2919 1075.61 8.30899C1075.61 3.97305 1072.75 1.18186 1067.79 1.18186L1059.18 1.18186L1059.18 23ZM1063.8 11.5583L1063.8 4.95317L1066.91 4.95317C1069.57 4.95317 1070.86 6.1357 1070.86 8.30899C1070.86 10.4716 1069.57 11.5583 1066.93 11.5583L1063.8 11.5583ZM1078.87 23L1093.62 23L1093.62 19.1968L1083.48 19.1968L1083.48 13.9873L1092.82 13.9873L1092.82 10.184L1083.48 10.184L1083.48 4.98513L1093.57 4.98513L1093.57 1.18186L1078.87 1.18186L1078.87 23ZM1109.08 7.45672L1113.5 7.45672C1113.43 3.56823 1110.24 0.883566 1105.38 0.883566C1100.6 0.883566 1097.09 3.52561 1097.11 7.48868C1097.1 10.706 1099.37 12.549 1103.06 13.4333L1105.43 14.0299C1107.81 14.6052 1109.13 15.287 1109.14 16.7571C1109.13 18.3552 1107.62 19.4418 1105.27 19.4418C1102.88 19.4418 1101.15 18.3339 1101 16.1499L1096.54 16.1499C1096.65 20.8694 1100.03 23.309 1105.33 23.309C1110.65 23.309 1113.78 20.7628 1113.8 16.7678C1113.78 13.135 1111.05 11.2067 1107.25 10.3544L1105.29 9.8857C1103.4 9.44891 1101.81 8.74578 1101.84 7.17973C1101.84 5.77348 1103.09 4.7401 1105.35 4.7401C1107.55 4.7401 1108.91 5.74152 1109.08 7.45672ZM1116.9 23L1121.51 23L1121.51 13.9873L1130.88 13.9873L1130.88 23L1135.48 23L1135.48 1.18186L1130.88 1.18186L1130.88 10.184L1121.51 10.184L1121.51 1.18186L1116.9 1.18186L1116.9 23ZM1174.33 10.2905L1144.33 10.2905L1144.33 13.8914L1174.33 13.8914L1174.33 10.2905ZM1183.17 23L1187.78 23L1187.78 13.9873L1196.66 13.9873L1196.66 10.184L1187.78 10.184L1187.78 4.98513L1197.61 4.98513L1197.61 1.18187L1183.17 1.18186L1183.17 23ZM1200.72 23L1205.33 23L1205.33 15.2657L1208.7 15.2657L1212.83 23L1217.92 23L1213.29 14.5199C1215.77 13.4546 1217.14 11.292 1217.14 8.309C1217.14 3.97306 1214.28 1.18187 1209.32 1.18187L1200.72 1.18187L1200.72 23ZM1205.33 11.5583L1205.33 4.95317L1208.44 4.95317C1211.1 4.95317 1212.39 6.1357 1212.39 8.309C1212.39 10.4716 1211.1 11.5583 1208.46 11.5583L1205.33 11.5583ZM1220.4 23L1235.15 23L1235.15 19.1968L1225.02 19.1968L1225.02 13.9873L1234.35 13.9873L1234.35 10.184L1225.02 10.184L1225.02 4.98513L1235.11 4.98513L1235.11 1.18187L1220.4 1.18187L1220.4 23ZM1250.61 7.45673L1255.03 7.45673C1254.97 3.56823 1251.77 0.883571 1246.91 0.883571C1242.13 0.883571 1238.62 3.52562 1238.65 7.48868C1238.63 10.706 1240.9 12.5491 1244.59 13.4333L1246.97 14.0299C1249.34 14.6052 1250.66 15.287 1250.67 16.7572C1250.66 18.3552 1249.15 19.4418 1246.81 19.4418C1244.41 19.4418 1242.68 18.3339 1242.53 16.1499L1238.07 16.1499C1238.19 20.8694 1241.56 23.309 1246.86 23.309C1252.19 23.309 1255.32 20.7628 1255.33 16.7678C1255.32 13.135 1252.58 11.2067 1248.79 10.3545L1246.83 9.8857C1244.93 9.44891 1243.34 8.74579 1243.38 7.17974C1243.38 5.77349 1244.62 4.7401 1246.88 4.74011C1249.09 4.74011 1250.44 5.74153 1250.61 7.45673ZM1258.43 23L1263.04 23L1263.04 13.9873L1272.41 13.9873L1272.41 23.0001L1277.01 23.0001L1277.01 1.18187L1272.41 1.18187L1272.41 10.184L1263.04 10.184L1263.04 1.18187L1258.43 1.18187L1258.43 23ZM1315.86 10.2905L1285.86 10.2905L1285.86 13.8914L1315.86 13.8914L1315.86 10.2905ZM1324.7 23.0001L1329.31 23.0001L1329.31 13.9873L1338.19 13.9873L1338.19 10.184L1329.31 10.184L1329.31 4.98514L1339.15 4.98514L1339.15 1.18187L1324.7 1.18187L1324.7 23.0001ZM1342.25 23.0001L1346.86 23.0001L1346.86 15.2657L1350.23 15.2657L1354.36 23.0001L1359.46 23.0001L1354.82 14.5199C1357.3 13.4546 1358.68 11.292 1358.68 8.309C1358.68 3.97306 1355.81 1.18187 1350.86 1.18187L1342.25 1.18187L1342.25 23.0001ZM1346.86 11.5583L1346.86 4.95318L1349.97 4.95318C1352.64 4.95318 1353.93 6.13571 1353.93 8.309C1353.93 10.4716 1352.64 11.5583 1349.99 11.5583L1346.86 11.5583ZM1361.94 23.0001L1376.68 23.0001L1376.68 19.1968L1366.55 19.1968L1366.55 13.9873L1375.88 13.9873L1375.88 10.184L1366.55 10.184L1366.55 4.98514L1376.64 4.98514L1376.64 1.18187L1361.94 1.18187L1361.94 23.0001ZM1392.14 7.45673L1396.56 7.45673C1396.5 3.56824 1393.3 0.883577 1388.45 0.883576C1383.66 0.883576 1380.16 3.52562 1380.18 7.48869C1380.17 10.706 1382.44 12.5491 1386.12 13.4333L1388.5 14.0299C1390.87 14.6052 1392.2 15.287 1392.21 16.7572C1392.2 18.3552 1390.68 19.4418 1388.34 19.4418C1385.94 19.4418 1384.22 18.3339 1384.07 16.1499L1379.6 16.1499C1379.72 20.8694 1383.1 23.309 1388.39 23.309C1393.72 23.309 1396.85 20.7628 1396.86 16.7678C1396.85 13.135 1394.11 11.2067 1390.32 10.3545L1388.36 9.88571C1386.46 9.44892 1384.88 8.74579 1384.91 7.17974C1384.91 5.77349 1386.16 4.74011 1388.41 4.74011C1390.62 4.74011 1391.97 5.74153 1392.14 7.45673ZM1399.96 23.0001L1404.58 23.0001L1404.58 13.9873L1413.94 13.9873L1413.94 23.0001L1418.54 23.0001L1418.54 1.18187L1413.94 1.18187L1413.94 10.184L1404.58 10.184L1404.58 1.18187L1399.96 1.18187L1399.96 23.0001ZM1457.39 10.2905L1427.39 10.2905L1427.39 13.8914L1457.39 13.8914L1457.39 10.2905ZM1466.23 23.0001L1470.85 23.0001L1470.85 13.9873L1479.72 13.9873L1479.72 10.184L1470.85 10.184L1470.85 4.98514L1480.68 4.98514L1480.68 1.18188L1466.23 1.18187L1466.23 23.0001ZM1483.78 23.0001L1488.4 23.0001L1488.4 15.2657L1491.76 15.2657L1495.9 23.0001L1500.99 23.0001L1496.35 14.5199C1498.84 13.4546 1500.21 11.292 1500.21 8.30901C1500.21 3.97307 1497.34 1.18188 1492.39 1.18188L1483.78 1.18188L1483.78 23.0001ZM1488.4 11.5583L1488.4 4.95318L1491.51 4.95318C1494.17 4.95318 1495.46 6.13571 1495.46 8.30901C1495.46 10.4716 1494.17 11.5583 1491.53 11.5583L1488.4 11.5583ZM1503.47 23.0001L1518.21 23.0001L1518.21 19.1968L1508.08 19.1968L1508.08 13.9873L1517.42 13.9873L1517.42 10.184L1508.08 10.184L1508.08 4.98514L1518.17 4.98514L1518.17 1.18188L1503.47 1.18188L1503.47 23.0001ZM1533.68 7.45674L1538.1 7.45674C1538.03 3.56824 1534.84 0.883582 1529.98 0.883582C1525.2 0.883582 1521.69 3.52563 1521.71 7.48869C1521.7 10.706 1523.97 12.5491 1527.66 13.4333L1530.03 14.0299C1532.41 14.6052 1533.73 15.287 1533.74 16.7572C1533.73 18.3552 1532.22 19.4418 1529.87 19.4418C1527.48 19.4418 1525.75 18.3339 1525.6 16.1499L1521.14 16.1499C1521.25 20.8694 1524.63 23.309 1529.93 23.309C1535.25 23.309 1538.38 20.7628 1538.4 16.7678C1538.38 13.135 1535.65 11.2067 1531.85 10.3545L1529.89 9.88571C1528 9.44892 1526.41 8.7458 1526.44 7.17975C1526.44 5.7735 1527.69 4.74012 1529.95 4.74012C1532.15 4.74012 1533.51 5.74154 1533.68 7.45674ZM1541.5 23.0001L1546.11 23.0001L1546.11 13.9873L1555.48 13.9873L1555.48 23.0001L1560.08 23.0001L1560.08 1.18188L1555.48 1.18188L1555.48 10.184L1546.11 10.184L1546.11 1.18188L1541.5 1.18188L1541.5 23.0001ZM1598.93 10.2905L1568.93 10.2905L1568.93 13.8914L1598.93 13.8914L1598.93 10.2905ZM1607.77 23.0001L1612.38 23.0001L1612.38 13.9873L1621.25 13.9873L1621.25 10.184L1612.38 10.184L1612.38 4.98515L1622.21 4.98515L1622.21 1.18188L1607.77 1.18188L1607.77 23.0001ZM1625.32 23.0001L1629.93 23.0001L1629.93 15.2657L1633.3 15.2657L1637.43 23.0001L1642.52 23.0001L1637.89 14.5199C1640.37 13.4546 1641.74 11.292 1641.74 8.30901C1641.74 3.97307 1638.88 1.18188 1633.92 1.18188L1625.32 1.18188L1625.32 23.0001ZM1629.93 11.5583L1629.93 4.95319L1633.04 4.95319C1635.7 4.95319 1636.99 6.13572 1636.99 8.30901C1636.99 10.4717 1635.7 11.5583 1633.06 11.5583L1629.93 11.5583ZM1645 23.0001L1659.75 23.0001L1659.75 19.1968L1649.62 19.1968L1649.62 13.9873L1658.95 13.9873L1658.95 10.184L1649.62 10.184L1649.62 4.98515L1659.71 4.98515L1659.71 1.18188L1645 1.18188L1645 23.0001ZM1675.21 7.45674L1679.63 7.45674C1679.57 3.56825 1676.37 0.883587 1671.51 0.883587C1666.73 0.883587 1663.22 3.52563 1663.25 7.4887C1663.23 10.706 1665.5 12.5491 1669.19 13.4333L1671.57 14.0299C1673.94 14.6052 1675.26 15.287 1675.27 16.7572C1675.26 18.3552 1673.75 19.4418 1671.41 19.4418C1669.01 19.4418 1667.28 18.3339 1667.13 16.1499L1662.67 16.1499C1662.79 20.8694 1666.16 23.309 1671.46 23.309C1676.79 23.309 1679.92 20.7628 1679.93 16.7678C1679.92 13.135 1677.18 11.2067 1673.39 10.3545L1671.43 9.88572C1669.53 9.44893 1667.94 8.7458 1667.98 7.17975C1667.98 5.7735 1669.22 4.74012 1671.48 4.74012C1673.69 4.74012 1675.04 5.74154 1675.21 7.45674ZM1683.03 23.0001L1687.64 23.0001L1687.64 13.9873L1697.01 13.9873L1697.01 23.0001L1701.61 23.0001L1701.61 1.18188L1697.01 1.18188L1697.01 10.184L1687.64 10.184L1687.64 1.18188L1683.03 1.18188L1683.03 23.0001ZM1740.46 10.2905L1710.46 10.2905L1710.46 13.8914L1740.46 13.8914L1740.46 10.2905ZM1749.3 23.0001L1753.91 23.0001L1753.91 13.9873L1762.79 13.9873L1762.79 10.184L1753.91 10.184L1753.91 4.98515L1763.75 4.98515L1763.75 1.18189L1749.3 1.18189L1749.3 23.0001ZM1766.85 23.0001L1771.46 23.0001L1771.46 15.2657L1774.83 15.2657L1778.96 23.0001L1784.05 23.0001L1779.42 14.52C1781.9 13.4546 1783.28 11.292 1783.28 8.30902C1783.28 3.97308 1780.41 1.18189 1775.46 1.18189L1766.85 1.18189L1766.85 23.0001ZM1771.46 11.5583L1771.46 4.95319L1774.57 4.95319C1777.24 4.95319 1778.53 6.13572 1778.53 8.30902C1778.53 10.4717 1777.24 11.5583 1774.59 11.5583L1771.46 11.5583ZM1786.54 23.0001L1801.28 23.0001L1801.28 19.1968L1791.15 19.1968L1791.15 13.9873L1800.48 13.9873L1800.48 10.184L1791.15 10.184L1791.15 4.98515L1801.24 4.98515L1801.24 1.18189L1786.54 1.18189L1786.54 23.0001ZM1816.74 7.45675L1821.16 7.45675C1821.1 3.56825 1817.9 0.883592 1813.05 0.883592C1808.26 0.883592 1804.76 3.52564 1804.78 7.4887C1804.77 10.706 1807.04 12.5491 1810.72 13.4333L1813.1 14.0299C1815.47 14.6052 1816.8 15.287 1816.81 16.7572C1816.8 18.3552 1815.28 19.4418 1812.94 19.4418C1810.54 19.4418 1808.82 18.3339 1808.67 16.1499L1804.2 16.1499C1804.32 20.8694 1807.7 23.309 1812.99 23.309C1818.32 23.309 1821.45 20.7629 1821.46 16.7678C1821.45 13.135 1818.71 11.2067 1814.92 10.3545L1812.96 9.88572C1811.06 9.44893 1809.48 8.74581 1809.51 7.17976C1809.51 5.77351 1810.75 4.74013 1813.01 4.74013C1815.22 4.74013 1816.57 5.74155 1816.74 7.45675ZM1824.56 23.0001L1829.18 23.0001L1829.18 13.9873L1838.54 13.9873L1838.54 23.0001L1843.14 23.0001L1843.14 1.18189L1838.54 1.18189L1838.54 10.184L1829.18 10.184L1829.18 1.18189L1824.56 1.18189L1824.56 23.0001ZM1881.99 10.2906L1851.99 10.2906L1851.99 13.8914L1881.99 13.8914L1881.99 10.2906ZM1890.83 23.0001L1895.45 23.0001L1895.45 13.9873L1904.32 13.9873L1904.32 10.184L1895.45 10.184L1895.45 4.98516L1905.28 4.98516L1905.28 1.18189L1890.83 1.18189L1890.83 23.0001ZM1908.38 23.0001L1913 23.0001L1913 15.2657L1916.36 15.2657L1920.5 23.0001L1925.59 23.0001L1920.95 14.52C1923.44 13.4546 1924.81 11.292 1924.81 8.30902C1924.81 3.97308 1921.94 1.18189 1916.99 1.18189L1908.38 1.18189L1908.38 23.0001ZM1913 11.5583L1913 4.9532L1916.11 4.9532C1918.77 4.9532 1920.06 6.13573 1920.06 8.30902C1920.06 10.4717 1918.77 11.5583 1916.13 11.5583L1913 11.5583ZM1928.07 23.0001L1942.81 23.0001L1942.81 19.1968L1932.68 19.1968L1932.68 13.9873L1942.02 13.9873L1942.02 10.184L1932.68 10.184L1932.68 4.98516L1942.77 4.98516L1942.77 1.18189L1928.07 1.18189L1928.07 23.0001ZM1958.28 7.45675L1962.7 7.45675C1962.63 3.56826 1959.44 0.883597 1954.58 0.883597C1949.8 0.883597 1946.29 3.52564 1946.31 7.48871C1946.3 10.706 1948.57 12.5491 1952.26 13.4333L1954.63 14.0299C1957.01 14.6052 1958.33 15.287 1958.34 16.7572C1958.33 18.3552 1956.82 19.4418 1954.47 19.4418C1952.07 19.4418 1950.35 18.3339 1950.2 16.1499L1945.74 16.1499C1945.85 20.8694 1949.23 23.309 1954.53 23.309C1959.85 23.309 1962.98 20.7629 1962.99 16.7678C1962.98 13.135 1960.25 11.2068 1956.45 10.3545L1954.49 9.88573C1952.6 9.44894 1951.01 8.74581 1951.04 7.17976C1951.04 5.77351 1952.29 4.74013 1954.55 4.74013C1956.75 4.74013 1958.1 5.74155 1958.28 7.45675ZM1966.1 23.0001L1970.71 23.0001L1970.71 13.9873L1980.07 13.9873L1980.07 23.0001L1984.68 23.0001L1984.68 1.18189L1980.07 1.18189L1980.07 10.184L1970.71 10.184L1970.71 1.18189L1966.1 1.18189L1966.1 23.0001ZM2023.53 10.2906L1993.53 10.2906L1993.53 13.8914L2023.53 13.8914L2023.53 10.2906Z" fill="#016450"/>
</svg>
